<!-- Generator: Adobe Illustrator 22.0.1, SVG Export Plug-In  -->
<svg version="1.1"
	 xmlns="http://www.w3.org/2000/svg" xmlns:xlink="http://www.w3.org/1999/xlink" xmlns:a="http://ns.adobe.com/AdobeSVGViewerExtensions/3.0/"
	 x="0px" y="0px" width="850.8px" height="935.9px" viewBox="0 0 850.8 935.9" style="enable-background:new 0 0 850.8 935.9;"
	 xml:space="preserve">
<style type="text/css">
	.st0{fill:#C70019;}
	.st1{fill:#FFFFFF;}
	.st2{fill:#DCDDDD;}
</style>
<defs>
</defs>
<g>
	<path class="st0" d="M425.4,408.4l294.5,282.7c70.5-73.4,113.9-173,113.9-282.7C833.8,182.8,651,0,425.4,0
		C199.9,0,17,182.8,17,408.4c0,109.8,43.4,209.3,113.9,282.7L425.4,408.4z"/>
	<polygon class="st1" points="629.6,485 578.6,280.8 459.5,280.8 425.4,318 391.4,280.8 272.3,280.8 221.2,485 195.7,485 195.7,536 
		655.1,536 655.1,485 	"/>
	<polygon points="850.8,816.8 850.8,935.9 0,935.9 0,816.8 425.4,408.4 	"/>
	<polygon class="st1" points="68.1,893.4 68.1,918.9 17,918.9 17,833.8 42.5,833.8 42.5,893.4 	"/>
	<polygon class="st2" points="782.8,893.8 782.8,918.9 833.8,918.9 833.8,833.8 782.8,833.8 782.8,859.3 808.3,859.3 808.3,893.8 	
		"/>
	<rect x="76.6" y="833.8" class="st2" width="85.1" height="85.1"/>
	<path class="st1" d="M212.7,833.8c-23.5,0-42.5,19-42.5,42.5c0,23.5,19.1,42.6,42.5,42.6c23.5,0,42.5-19.1,42.5-42.6
		C255.2,852.9,236.2,833.8,212.7,833.8z M212.7,893.4c-9.4,0-17-7.6-17-17c0-9.4,7.6-17,17-17c9.4,0,17,7.6,17,17
		C229.7,885.8,222.1,893.4,212.7,893.4z"/>
	<g>
		<path class="st1" d="M774.3,876.3c0,23.5-19.1,42.6-42.5,42.6c-23.5,0-42.5-19.1-42.5-42.6c0-23.5,19.1-42.5,42.5-42.5
			C755.2,833.8,774.3,852.9,774.3,876.3z"/>
	</g>
	<path class="st2" d="M263.8,918.9h68.1v-25.5h-21.3v-34h21.3v-25.5h-68.1v25.5H285v34h-21.3V918.9z"/>
	<path class="st2" d="M489.2,918.9v-59.6h21.3v-25.5h-68.1v25.5h21.3v59.6H489.2z"/>
	<path class="st2" d="M612.6,918.9h68v-25.5h-21.3v-34h21.3v-25.5h-68v25.5h21.2v34h-21.2V918.9z"/>
	<polygon class="st1" points="362.7,918.9 338.2,876.3 362.7,833.8 411.6,833.8 436.1,876.3 411.6,918.9 	"/>
	<polygon class="st1" points="543.9,918.9 519,894 519,858.7 543.9,833.8 579.2,833.8 604.1,858.7 604.1,894 579.2,918.9 	"/>
	<polygon class="st1" points="425.4,408.4 17,816.8 42.5,816.8 	"/>
	<polygon class="st2" points="425.4,408.4 76.6,816.8 161.7,816.8 	"/>
	<polygon class="st1" points="425.4,408.4 195.7,816.8 229.7,816.8 	"/>
	<polygon class="st2" points="425.4,408.4 263.8,816.8 331.8,816.8 	"/>
	<polygon class="st1" points="425.4,408.4 362.7,816.8 411.6,816.8 	"/>
	<polygon class="st2" points="425.4,408.4 442.4,816.8 510.5,816.8 	"/>
	<polygon class="st1" points="425.4,408.4 543.9,816.8 579.2,816.8 	"/>
	<polygon class="st2" points="425.4,408.4 612.6,816.8 680.7,816.8 	"/>
	<polygon class="st1" points="425.4,408.4 714.7,816.8 748.7,816.8 	"/>
	<polygon class="st2" points="425.4,408.4 782.8,816.8 833.8,816.8 	"/>
	<polygon class="st0" points="375.8,450.9 340.3,450.9 374.4,357.3 408.4,357.3 416.9,382.9 433.9,382.9 442.4,357.3 476.5,357.3 
		510.5,450.9 475,450.9 439.1,420 425.4,442.4 411.8,420 	"/>
	<g>
		<path class="st1" d="M84.6,399.5l3.6-26.9l41.5-4.8L91,352.1l3.6-26.8l66,8.9l-2.2,16.8l-50.4-6.8l48.6,19.7l-2,15.1l-52.1,6
			l50.3,6.8l-2.2,16.7L84.6,399.5z"/>
		<path class="st1" d="M119.6,261.9l9.5-18.3l59.1,30.7l-9.5,18.3L119.6,261.9z"/>
		<path class="st1" d="M168.1,185.6l13.8-13.2l43.6,9.3L200.1,155l14-13.4l46.1,48.1l-14,13.4l-43.3-9.2l25.3,26.4l-14,13.4
			L168.1,185.6z"/>
		<path class="st1" d="M273.8,103l25.5-9.3l23.6,34.5l-4.2-41.6l25.4-9.3l22.9,62.6l-15.9,5.8l-17.4-47.7l5.3,52.2l-14.4,5.2
			L295.1,112l17.5,47.7l-15.9,5.8L273.8,103z"/>
		<path class="st1" d="M413.1,68.7l55,2.3l-0.6,14.2l-34.4-1.4l-0.4,10.5l31.9,1.3l-0.6,13.6l-31.9-1.4l-0.5,13.2l35.4,1.5
			l-0.6,15.1l-56.1-2.3L413.1,68.7z"/>
		<path class="st1" d="M529.9,84.4l57.5,24.7l-6.4,15.1l-19.3-8.3L541.8,162l-18.9-8.1l19.8-46.1l-19.3-8.3L529.9,84.4z"/>
		<path class="st1" d="M623.9,186.4l21.7-12.4l-11.1,22.4L623.9,186.4z M622.7,220.2l15.7,14.7l27.5-65.6l-16.5-15.5l-63.8,31.4
			l15.3,14.4l10-5.7l16.9,15.9L622.7,220.2z"/>
		<path class="st1" d="M719.2,237.7l9,18.4l-45.1,22.1l14.2,28.9l-14.7,7.2l-23.2-47.4L719.2,237.7z"/>
		<path class="st1" d="M715.2,348.2l3.2,19.4c-3.1,0.8-5.4,1.8-6.9,3.3c-2.5,2.3-3.5,5.5-3.1,9.4c0.3,3,1.2,5.1,2.7,6.6
			c1.6,1.5,3.2,2.1,5,1.9c1.7-0.1,3.1-1,4.3-2.7c1.2-1.6,2.2-5.2,2.8-10.9c1.1-9.1,3.1-15.8,6.1-20c3-4.2,7-6.6,12.2-7
			c3.4-0.4,6.7,0.3,9.9,2c3.2,1.7,5.9,4.4,8.1,8.2c2.1,3.8,3.5,9.1,4.2,16c0.9,8.5,0,15.1-2.7,19.9c-2.7,4.8-7.4,7.9-14.3,9.5
			l-3.1-19.2c3-0.8,5-2.1,6.2-3.9c1.2-1.8,1.6-4.1,1.4-7c-0.2-2.4-0.9-4.1-2.1-5.2c-1.1-1.1-2.5-1.6-3.8-1.4c-1.1,0.1-2,0.7-2.7,1.7
			c-0.8,1.1-1.4,3.4-1.7,7.1c-1,9.1-2.3,15.7-3.9,19.8c-1.6,4.1-3.7,7.1-6.5,9.2c-2.8,2.1-5.9,3.3-9.6,3.6
			c-4.3,0.4-8.3-0.3-12.1-2.3c-3.8-2-6.9-5-9.2-9c-2.3-4-3.8-9.3-4.4-15.7c-1.2-11.3,0.2-19.2,4.1-24.1
			C703.3,352.5,708.5,349.5,715.2,348.2z"/>
	</g>
</g>
</svg>
