<svg xmlns="http://www.w3.org/2000/svg" viewBox="0 0 157.09 85.46"><defs><style>.cls-1{fill:#c0bfbf;}.cls-2{fill:#9ac4e9;}.cls-3{fill:#698fca;}.cls-4{fill:#626293;}.cls-5{fill:#cbe4c1;}.cls-6{fill:#f8c9c9;}.cls-10,.cls-13,.cls-7{fill:#fff;}.cls-8{fill:#cde9ef;}.cls-9{fill:#c9c7e4;}.cls-10,.cls-12{opacity:0.5;}.cls-11{fill:#12335f;}.cls-13{stroke:#c9c7e4;stroke-miterlimit:10;}.cls-14{fill:#6392c1;}.cls-15{fill:#303263;}.cls-16{fill:#2f318e;}.cls-17{fill:#e5e5e5;}</style></defs><title>快速访问bg</title><g id="图层_2" data-name="图层 2"><g id="图层_1-2" data-name="图层 1"><rect class="cls-1" x="18.16" width="33.47" height="85.46" rx="1.69" ry="1.69"/><path class="cls-2" d="M49.7,0H27.93L39.5,85.46H49.7a1.93,1.93,0,0,0,1.93-1.93V1.93A1.93,1.93,0,0,0,49.7,0Z"/><path class="cls-3" d="M18.16,1.93v81.6a1.92,1.92,0,0,0,1.92,1.93H39.5L27.93,0H20.08A1.92,1.92,0,0,0,18.16,1.93Z"/><rect class="cls-4" x="20.87" y="3.04" width="28.04" height="4.48"/><rect class="cls-4" x="20.87" y="9.62" width="28.04" height="4.48"/><rect class="cls-4" x="20.87" y="16.21" width="28.04" height="4.48"/><rect class="cls-4" x="20.87" y="22.8" width="28.04" height="4.48"/><rect class="cls-4" x="20.87" y="29.39" width="28.04" height="4.48"/><circle class="cls-5" cx="22.94" cy="5.28" r="0.77"/><circle class="cls-5" cx="22.94" cy="11.86" r="0.77"/><circle class="cls-5" cx="22.94" cy="18.45" r="0.77"/><circle class="cls-5" cx="22.94" cy="25.04" r="0.77"/><circle class="cls-5" cx="22.94" cy="31.62" r="0.77"/><circle class="cls-6" cx="25.49" cy="5.28" r="0.77"/><circle class="cls-6" cx="25.49" cy="11.86" r="0.77"/><circle class="cls-6" cx="25.49" cy="18.45" r="0.77"/><circle class="cls-6" cx="25.49" cy="25.04" r="0.77"/><circle class="cls-6" cx="25.49" cy="31.62" r="0.77"/><rect class="cls-7" x="42.52" y="4.62" width="4.97" height="1.31" rx="0.57" ry="0.57"/><rect class="cls-7" x="42.52" y="11.21" width="4.97" height="1.31" rx="0.57" ry="0.57"/><rect class="cls-7" x="42.52" y="17.8" width="4.97" height="1.31" rx="0.57" ry="0.57"/><rect class="cls-7" x="42.52" y="24.38" width="4.97" height="1.31" rx="0.57" ry="0.57"/><rect class="cls-7" x="42.52" y="30.97" width="4.97" height="1.31" rx="0.57" ry="0.57"/><path class="cls-8" d="M157,82.3l-7.73-23.19h-18L123.48,82.3a2.4,2.4,0,0,0,2.27,3.16h28.94A2.4,2.4,0,0,0,157,82.3Z"/><path class="cls-9" d="M148,55.32a28.63,28.63,0,0,1-1.47-9V31.41a.79.79,0,0,1,.79-.8h0a.79.79,0,0,0,.79-.79v-.24a.79.79,0,0,0-.79-.8H133.15a.8.8,0,0,0-.79.8v.24a.79.79,0,0,0,.79.79h0a.8.8,0,0,1,.8.8V46.28a28.35,28.35,0,0,1-1.48,9l-1.27,3.79h18Z"/><path class="cls-10" d="M145.56,46.3V31.41a.79.79,0,0,0-.79-.8h-.59a.8.8,0,0,0-.79.8V46.22a29.43,29.43,0,0,0,1.44,9.08l7.23,22.14a.87.87,0,0,0,.83.6h.19a.87.87,0,0,0,.83-1.13L147,55.23A29.14,29.14,0,0,1,145.56,46.3Z"/><path class="cls-11" d="M111,85.46H69.53A1.82,1.82,0,0,1,68,82.74l4.47-7.8h35.71l4.48,7.8A1.82,1.82,0,0,1,111,85.46Z"/><rect class="cls-11" x="43.27" y="10.42" width="94.03" height="64.89" rx="8.79" ry="8.79"/><rect class="cls-2" x="44.54" y="11.84" width="91.5" height="62.04" rx="7.22" ry="7.22"/><polygon class="cls-10" points="110.47 83.62 107.43 83.62 103.82 76.04 106.81 76.04 110.47 83.62"/><g class="cls-12"><path class="cls-7" d="M128.82,11.84h-46L96.2,73.89h32.62A7.22,7.22,0,0,0,136,66.67V19.06A7.22,7.22,0,0,0,128.82,11.84Z"/></g><rect class="cls-13" x="53.71" y="18.03" width="73.16" height="49.68"/><rect class="cls-14" x="60.6" y="22.8" width="8.6" height="41.54"/><rect class="cls-2" x="73.14" y="41.22" width="8.6" height="23.12"/><rect class="cls-14" x="85.67" y="31.91" width="8.6" height="32.43"/><rect class="cls-14" x="98.21" y="24.3" width="8.6" height="40.04"/><rect class="cls-2" x="110.74" y="24.3" width="8.6" height="40.04"/><rect class="cls-2" x="1.2" y="81.5" width="35.62" height="3.89" rx="1.38" ry="1.38" transform="translate(38.02 166.9) rotate(-180)"/><rect class="cls-15" y="77.7" width="35.62" height="3.89" rx="1.38" ry="1.38" transform="translate(35.62 159.29) rotate(-180)"/><rect class="cls-2" x="1.2" y="73.91" width="35.62" height="3.89" rx="1.38" ry="1.38" transform="translate(38.02 151.71) rotate(-180)"/><rect class="cls-9" x="2.81" y="70.11" width="35.62" height="3.89" rx="1.38" ry="1.38" transform="translate(41.23 144.12) rotate(-180)"/><rect class="cls-16" x="1.2" y="66.31" width="35.62" height="3.89" rx="1.38" ry="1.38" transform="translate(38.02 136.51) rotate(-180)"/><rect class="cls-15" x="26.45" y="70.11" width="35.62" height="3.89" rx="1.38" ry="1.38" transform="translate(24.6 154.31) rotate(-135)"/><rect class="cls-1" x="22.32" y="67.63" width="8.11" height="1.16" transform="translate(52.76 136.42) rotate(-180)"/><rect class="cls-7" x="23.48" y="71.48" width="8.11" height="1.16" transform="translate(55.08 144.12) rotate(-180)"/><rect class="cls-1" x="21.98" y="75.27" width="8.11" height="1.16" transform="translate(52.07 151.71) rotate(-180)"/><rect class="cls-17" x="20.72" y="79.06" width="8.11" height="1.16" transform="translate(49.54 159.29) rotate(-180)"/><rect class="cls-1" x="21.98" y="82.87" width="8.11" height="1.16" transform="translate(52.07 166.9) rotate(-180)"/></g></g></svg>