<svg xmlns="http://www.w3.org/2000/svg" viewBox="0 0 447.21 211.51"><defs><style>.cls-1{fill:#c0bfbf;}.cls-2{fill:#9ac4e9;}.cls-3{fill:#698fca;}.cls-4{fill:#626293;}.cls-5{fill:#cbe4c1;}.cls-6{fill:#f8c9c9;}.cls-7{fill:#fff;}.cls-8{fill:#cde9ef;}.cls-9{fill:#c9c7e4;}.cls-10{opacity:0.5;}.cls-11{fill:#12335f;}.cls-12{fill:#6392c1;}.cls-13{fill:#303263;}.cls-14{fill:#2f318e;}.cls-15{fill:#e5e5e5;}.cls-16{fill:#323333;}</style></defs><title>快速访问bg</title><g id="图层_2" data-name="图层 2"><g id="图层_1-2" data-name="图层 1"><path class="cls-1" d="M49.66,0h72.7a4.9,4.9,0,0,1,4.9,4.9V205.75a4.92,4.92,0,0,1-4.92,4.92H49.68a4.92,4.92,0,0,1-4.92-4.92V4.9A4.9,4.9,0,0,1,49.66,0Z"/><path class="cls-2" d="M122.52,0H68.84L97.37,210.67h25.15a4.75,4.75,0,0,0,4.75-4.75V4.75A4.75,4.75,0,0,0,122.52,0Z"/><path class="cls-3" d="M44.76,4.75V205.92a4.75,4.75,0,0,0,4.75,4.75H97.37L68.84,0H49.51A4.75,4.75,0,0,0,44.76,4.75Z"/><rect class="cls-4" x="51.44" y="7.49" width="69.13" height="11.04"/><rect class="cls-4" x="51.44" y="23.72" width="69.13" height="11.04"/><rect class="cls-4" x="51.44" y="39.96" width="69.13" height="11.04"/><rect class="cls-4" x="51.44" y="56.2" width="69.13" height="11.04"/><rect class="cls-4" x="51.44" y="72.44" width="69.13" height="11.04"/><circle class="cls-5" cx="56.55" cy="13" r="1.89"/><circle class="cls-5" cx="56.55" cy="29.24" r="1.89"/><circle class="cls-5" cx="56.55" cy="45.48" r="1.89"/><circle class="cls-5" cx="56.55" cy="61.72" r="1.89"/><circle class="cls-5" cx="56.55" cy="77.96" r="1.89"/><circle class="cls-6" cx="62.84" cy="13" r="1.89"/><circle class="cls-6" cx="62.84" cy="29.24" r="1.89"/><circle class="cls-6" cx="62.84" cy="45.48" r="1.89"/><circle class="cls-6" cx="62.84" cy="61.72" r="1.89"/><circle class="cls-6" cx="62.84" cy="77.96" r="1.89"/><rect class="cls-7" x="104.81" y="11.39" width="12.26" height="3.22" rx="0.57" ry="0.57"/><rect class="cls-7" x="104.81" y="27.63" width="12.26" height="3.22" rx="0.57" ry="0.57"/><rect class="cls-7" x="104.81" y="43.87" width="12.26" height="3.22" rx="0.57" ry="0.57"/><rect class="cls-7" x="104.81" y="60.11" width="12.26" height="3.22" rx="0.57" ry="0.57"/><rect class="cls-7" x="104.81" y="76.35" width="12.26" height="3.22" rx="0.57" ry="0.57"/><path class="cls-8" d="M387,202.89,367.9,145.71H323.44l-19.05,57.18a5.92,5.92,0,0,0,5.61,7.78h71.34A5.92,5.92,0,0,0,387,202.89Z"/><path class="cls-9" d="M364.78,136.37a70.06,70.06,0,0,1-3.64-22.29V77.43a2,2,0,0,1,1.95-2h0a2,2,0,0,0,2-2v-.6a2,2,0,0,0-2-2H328.25a2,2,0,0,0-2,2v.6a2,2,0,0,0,2,2h0a2,2,0,0,1,1.95,2v36.65a70.06,70.06,0,0,1-3.64,22.29l-3.12,9.34H367.9Z"/><g class="cls-10"><path class="cls-7" d="M358.84,114.14V77.43a2,2,0,0,0-2-2h-1.44a2,2,0,0,0-2,2V114A71.93,71.93,0,0,0,357,136.31l17.81,54.6a2.15,2.15,0,0,0,2,1.48h.48a2.15,2.15,0,0,0,2-2.8l-17.13-53.44A72.15,72.15,0,0,1,358.84,114.14Z"/></g><path class="cls-11" d="M273.74,210.67H171.41a4.48,4.48,0,0,1-3.88-6.7l11-19.23h88l11,19.23A4.48,4.48,0,0,1,273.74,210.67Z"/><rect class="cls-11" x="106.67" y="25.68" width="231.8" height="159.97" rx="8.79" ry="8.79"/><rect class="cls-2" x="109.79" y="29.2" width="225.57" height="152.95" rx="7.22" ry="7.22"/><g class="cls-10"><polygon class="cls-7" points="272.33 206.13 264.83 206.13 255.94 187.45 263.3 187.45 272.33 206.13"/></g><g class="cls-10"><path class="cls-7" d="M328.67,29.2H204.22l32.93,153h91.52a6.69,6.69,0,0,0,6.69-6.69V35.88A6.68,6.68,0,0,0,328.67,29.2Z"/></g><rect class="cls-7" x="132.4" y="44.43" width="180.34" height="122.47"/><path class="cls-9" d="M314,168.14H131.17V43.2H314Zm-180.34-2.47H311.51v-120H133.64Z"/><rect class="cls-12" x="149.4" y="56.21" width="21.2" height="102.4"/><rect class="cls-2" x="180.3" y="101.61" width="21.2" height="57"/><rect class="cls-12" x="211.2" y="78.66" width="21.2" height="79.95"/><rect class="cls-12" x="242.1" y="59.9" width="21.2" height="98.71"/><rect class="cls-2" x="273" y="59.9" width="21.2" height="98.71"/><rect class="cls-2" x="2.96" y="200.92" width="87.81" height="9.6" rx="1.38" ry="1.38" transform="translate(93.72 411.45) rotate(-180)"/><rect class="cls-13" y="191.53" width="87.81" height="9.6" rx="1.38" ry="1.38" transform="translate(87.81 392.67) rotate(-180)"/><rect class="cls-2" x="2.96" y="182.19" width="87.81" height="9.6" rx="1.38" ry="1.38" transform="translate(93.72 373.98) rotate(-180)"/><rect class="cls-9" x="6.92" y="172.84" width="87.81" height="9.6" rx="1.38" ry="1.38" transform="translate(101.65 355.29) rotate(-180)"/><rect class="cls-14" x="2.96" y="163.45" width="87.81" height="9.6" rx="1.38" ry="1.38" transform="translate(93.72 336.51) rotate(-180)"/><rect class="cls-13" x="65.2" y="172.84" width="87.81" height="9.6" rx="1.38" ry="1.38" transform="translate(60.64 380.41) rotate(-135)"/><rect class="cls-1" x="55.03" y="166.72" width="19.99" height="2.86" transform="translate(130.06 336.3) rotate(-180)"/><rect class="cls-7" x="57.89" y="176.21" width="19.99" height="2.86" transform="translate(135.78 355.29) rotate(-180)"/><rect class="cls-7" x="77.69" y="154.79" width="19.99" height="2.86" transform="translate(39.22 328.7) rotate(-135)"/><rect class="cls-1" x="54.19" y="185.56" width="19.99" height="2.86" transform="translate(128.36 373.98) rotate(-180)"/><rect class="cls-15" x="51.07" y="194.9" width="19.99" height="2.86" transform="translate(122.13 392.67) rotate(-180)"/><rect class="cls-1" x="54.19" y="204.29" width="19.99" height="2.86" transform="translate(128.36 411.45) rotate(-180)"/><path class="cls-2" d="M367.5,197.71h76.74a3,3,0,0,1,3,3v2a8,8,0,0,1-8,8H355.74a.6.6,0,0,1-.6-.6v0A12.36,12.36,0,0,1,367.5,197.71Z"/><path class="cls-11" d="M406,196.79V144.21a2.2,2.2,0,0,0-4.39,0v52.58h-2.18v.92h9.12v-.92Z"/><path class="cls-11" d="M423.5,196.79V144.21a2.19,2.19,0,1,0-4.38,0v52.58h-2.18v.92h9.11v-.92Z"/><path class="cls-11" d="M441,196.79V144.21a2.19,2.19,0,1,0-4.38,0v52.58h-2.18v.92h9.11v-.92Z"/><circle class="cls-7" cx="373.94" cy="200.6" r="1.3"/><circle class="cls-7" cx="377.89" cy="200.6" r="1.3"/><circle class="cls-7" cx="381.83" cy="200.6" r="1.3"/><path class="cls-16" d="M444.7,197.75a2.94,2.94,0,0,1,.79,2v2a8,8,0,0,1-8,8H355.15c0,.11,0,.21,0,.32a.6.6,0,0,0,.6.6h83.51a8,8,0,0,0,8-8v-2A3,3,0,0,0,444.7,197.75Z"/></g></g></svg>