<svg xmlns="http://www.w3.org/2000/svg" viewBox="0 0 40 40"><defs><style>.cls-1{fill:#fff;}.cls-2{fill:#1890ff;}</style></defs><title>zuijinfangwen</title><g id="图层_2" data-name="图层 2"><g id="图层_1-2" data-name="图层 1"><circle class="cls-1" cx="20" cy="20" r="19.5"/><path class="cls-2" d="M20,1A19,19,0,1,1,1,20,19,19,0,0,1,20,1m0-1A20,20,0,1,0,40,20,20,20,0,0,0,20,0Z"/><circle class="cls-1" cx="20" cy="20" r="17.09"/><path class="cls-2" d="M20,2.91h-.47l-.8,0h-.18L18,3l.12,1A16.79,16.79,0,0,1,20,3.91v-1Zm-4,.47A15.2,15.2,0,0,0,14.12,4l.35.94a13.83,13.83,0,0,1,1.8-.54l-.23-1ZM12.29,4.75,11.9,5h-.11c-.39.21-.76.44-1.13.68h-.1l.55.84a15.71,15.71,0,0,1,1.63-1l-.45-.89ZM9,7A18,18,0,0,0,7.61,8.23H7.53v0L8.25,9a13.92,13.92,0,0,1,1.36-1.3L9,7ZM6.24,9.87a12.36,12.36,0,0,0-.72,1.06h0v0h0l-.3.52L6,12a17.69,17.69,0,0,1,1-1.58l-.8-.59Zm-2,3.47-.17.41h0v0h0c-.13.33-.25.67-.36,1h0c0,.11-.07.21-.1.32l1,.28a17.68,17.68,0,0,1,.63-1.77l-.92-.39ZM3.15,17.17c-.06.31-.1.63-.14.95H3v0H3v0H3v0H3v0H3l0,.4,1,.05a16.87,16.87,0,0,1,.2-1.88l-1-.16ZM4,21.09l-1,.07c0,.16,0,.32,0,.47H3v0H3v0H3v0H3v0H3v0H3v0H3v0H3c.05.38.1.74.17,1.11l1-.18A17,17,0,0,1,4,21.09Zm.69,3.69-1,.3.12.38h0v0h0A13,13,0,0,0,4.39,27l.91-.41a13.8,13.8,0,0,1-.66-1.76Zm1.52,3.43-.85.51a15.15,15.15,0,0,0,1,1.45h0v0h0l0,0h0l.07.09.79-.61a16.46,16.46,0,0,1-1.06-1.56Zm2.29,3-.72.69.2.2h0l0,0H8l0,0H8l0,0H8l0,0H8l0,0h0l.09.08h0l0,0h0l0,0h0l0,0h0l0,0h0l0,0h0l0,0h0l0,0h0l0,0h0l0,0h0v0h.36l0,0h0l0,0h0l.36.31.64-.78A16.74,16.74,0,0,1,8.45,31.2Zm2.91,2.37-.54.85c.34.21.68.41,1,.6h0l0,0h0l0,0H12l.55.28.43-.9a15.58,15.58,0,0,1-1.64-.92Zm3.38,1.64-.32.94.28.1h.09c.48.15,1,.29,1.48.4h.07l.21-1a18.67,18.67,0,0,1-1.81-.51Zm3.67.8-.09,1c.45,0,.91.07,1.38.07h.61v-1H20c-.53,0-1.06,0-1.59-.08ZM24,35.58a14.73,14.73,0,0,1-1.85.36l.14,1,.53-.08h.27l.57-.11h.14l.45-.11-.25-1Zm3.5-1.36a15.55,15.55,0,0,1-1.71.79l.36.93.53-.22h.08c.41-.18.82-.37,1.21-.58l-.47-.89Zm3.09-2.13a18.42,18.42,0,0,1-1.48,1.16l.57.82.79-.58h0l0,0h0l0,0h.73l-.66-.75Zm2.52-2.79A16.5,16.5,0,0,1,32,30.77l.75.67c.17-.19.33-.39.49-.58h.08v0h0v0h0c.22-.27.43-.55.64-.83h0l-.82-.58Zm1.8-3.3a15.47,15.47,0,0,1-.8,1.7l.88.48a18.7,18.7,0,0,0,.85-1.81L34.93,26Zm1-3.63a16.86,16.86,0,0,1-.38,1.85l1,.26c0-.16.09-.32.13-.48h0v0h0v0h0v0h0c.1-.45.18-.9.25-1.36l-1-.15ZM37,18.53l-1,.09c0,.45.06.92.06,1.38,0,.17,0,.33,0,.5l1,0c0-.14,0-.28,0-.42h0v0h0v0h0v0h0v0h0v0h0v0h0v0h0v0h0c0-.29,0-.59,0-.88h0v0h0v0h0v0h0Zm-.8-3.91-.95.32a16.11,16.11,0,0,1,.49,1.81l1-.2c-.09-.43-.19-.85-.31-1.27h0l0,0h0v0h0v0h0v0h0v0h0c0-.1-.07-.21-.11-.32ZM34.53,11l-.85.52a17.74,17.74,0,0,1,.9,1.66l.9-.42c-.14-.31-.29-.61-.45-.91h0l0,0h0v0h0c-.14-.25-.28-.5-.44-.75ZM32.05,7.88l-.71.71A15.28,15.28,0,0,1,32.6,10l.78-.63-.11-.13h0l0,0h-.19l0,0h0l0,0h0l0,0h0l0,0h0l0,0h0l0,0h0l0,0h0l0,0h0l0,0h0v0h0l0,0h0l0,0h0l0,0h0c-.22-.24-.44-.48-.67-.71ZM28.91,5.42l-.52.85a16.37,16.37,0,0,1,1.54,1.08l.62-.79a17.11,17.11,0,0,0-1.64-1.14ZM25.29,3.75,25,4.7a16.22,16.22,0,0,1,1.75.68l.42-.9q-.27-.14-.54-.24h0l0,0H26l-.7-.24ZM21.37,3l-.08,1a16.82,16.82,0,0,1,1.87.26l.19-1A15.63,15.63,0,0,0,21.8,3h-.19l-.24,0Z"/><path class="cls-2" d="M14.78,17.51v1.08h-.44v-1L11,18l-.06-.42,1-.11V14.06h-1v-.4h8.48v.4H14.78v3.07l.56-.06v.37ZM18.28,13H12.17V10.26h6.11Zm-6,1v.81h2v-.81Zm0,2h2v-.83h-2Zm0,1.35,2-.24v-.72h-2Zm5.49-6.8h-5.2v.82h5.2Zm0,1.18h-5.2v.85h5.2Zm1.23,3.11a5.39,5.39,0,0,1-1.48,2.3,5.12,5.12,0,0,0,2,1,2.11,2.11,0,0,0-.28.37,5.81,5.81,0,0,1-2-1.09,6.65,6.65,0,0,1-2,1.07,1.29,1.29,0,0,0-.25-.34,6.24,6.24,0,0,0,1.93-1,5.54,5.54,0,0,1-1.28-2h-.47v-.4H18.7l.1,0Zm-3,.3a4.76,4.76,0,0,0,1.16,1.72,4.8,4.8,0,0,0,1.26-1.72Z"/><path class="cls-2" d="M22.38,16.77c.22.1.42.32.82.58a4.27,4.27,0,0,0,2.44.47c1.2,0,2.55-.07,3.45-.15a1.63,1.63,0,0,0-.14.49c-.66,0-2.46.1-3.32.1A4.54,4.54,0,0,1,23,17.72c-.37-.25-.66-.59-.87-.59s-.84.52-1.4,1.22L20.43,18a4,4,0,0,1,1.5-1.21V13.87H20.5v-.45h1.88ZM22.3,12a10.69,10.69,0,0,0-1.44-1.62l.35-.22a10.81,10.81,0,0,1,1.46,1.58Zm2.16,1.27a7.37,7.37,0,0,1-1,3.92,2.28,2.28,0,0,0-.39-.28,7.64,7.64,0,0,0,1-4.28v-2.1a24.71,24.71,0,0,0,4.29-.6l.38.36a22.88,22.88,0,0,1-4.22.6v1.94H29v.44H27.13V17.2h-.44V13.28Z"/><path class="cls-2" d="M14.09,27.65a1.77,1.77,0,0,0,.15.36,13.53,13.53,0,0,0-1.93,1.5,1.66,1.66,0,0,0-.28-.39,1,1,0,0,0,.47-.8V24.86H10.92v-.45h2v4Zm-1-4.38a16,16,0,0,0-1.3-1.37l.31-.29c.45.42,1,1,1.32,1.31Zm2.81.27c0,.56,0,1.1-.07,1.63h2.82s0,.19,0,.25c-.13,3-.25,4-.53,4.3a.77.77,0,0,1-.59.25c-.25,0-.75,0-1.22,0a1,1,0,0,0-.14-.44c.53.05,1,.05,1.21.05a.39.39,0,0,0,.35-.11c.23-.23.35-1.2.46-3.83H15.83c-.17,1.82-.61,3.45-1.83,4.45a1.28,1.28,0,0,0-.35-.31c1.61-1.25,1.78-3.74,1.84-6.21H14V23.1h5.4v.44Zm.68-.53a12.17,12.17,0,0,0-.45-1.45l.42-.1c.18.46.4,1.06.49,1.41Z"/><path class="cls-2" d="M21,23.46h.44v6.6H21Zm.45-1.89a19,19,0,0,1,1.43,1.51l-.35.25a18.39,18.39,0,0,0-1.41-1.55Zm4.89,6.12H23.55v.67h-.43v-4.1h3.19Zm2.19,1.57c0,.37-.1.52-.36.6a5.48,5.48,0,0,1-1.5.09,2.38,2.38,0,0,0-.16-.47c.61,0,1.18,0,1.33,0s.22-.05.22-.22V22.41H23.4V22h5.1Zm-4.95-4.57v2.57h2.32V24.69Z"/></g></g></svg>